<svg xmlns="http://www.w3.org/2000/svg" viewBox="0 0 512 512">
  <defs>
    <linearGradient id="bg" x1="0" y1="0" x2="512" y2="512" gradientUnits="userSpaceOnUse">
      <stop offset="0" stop-color="#0f4c5c"/>
      <stop offset="1" stop-color="#062028"/>
    </linearGradient>
  </defs>

  <rect width="512" height="512" rx="104" fill="url(#bg)"/>
  <rect x="56" y="56" width="400" height="400" rx="84" fill="#ffffff" opacity="0.04"/>

  <path d="M 260.25 61.05 A 195 195 0 0 1 374.03 411.22 L 334.69 359.48 A 130 130 0 0 0 258.84 126.03 Z" fill="#1fae7a"/>
  <path d="M 367.15 416.22 A 195 195 0 0 1 63.12 284.65 L 127.41 275.10 A 130 130 0 0 0 330.10 362.81 Z" fill="#1a8fa3"/>
  <path d="M 62.05 276.21 A 195 195 0 0 1 251.75 61.05 L 253.16 126.03 A 130 130 0 0 0 126.70 269.48 Z" fill="#f2b134"/>

  <circle cx="256" cy="256" r="130" fill="#ffffff"/>

  <rect x="196" y="266" width="140" height="95" rx="16" fill="#0f4c5c"/>
  <rect x="196" y="266" width="140" height="34" rx="16" fill="#1a8fa3"/>
  <circle cx="316" cy="283" r="7" fill="#ffffff"/>

  <circle cx="300" cy="246" r="30" fill="#f2b134" stroke="#ffffff" stroke-width="4"/>
  <path d="M280 258 L296 240 L306 248 L326 220" fill="none" stroke="#1fae7a" stroke-width="6" stroke-linecap="round" stroke-linejoin="round"/>
  <path d="M326 220 L326 230 M326 220 L316 220" fill="none" stroke="#1fae7a" stroke-width="6" stroke-linecap="round" stroke-linejoin="round"/>
</svg>
